<svg width="174" height="174" viewBox="0 0 174 174" fill="none" xmlns="http://www.w3.org/2000/svg">
<path d="M114.499 20.7891C116.835 20.7891 119.24 21.0856 121.641 21.6631C123.979 22.2278 126.341 23.0434 128.668 24.085L129.621 24.5117L129.617 24.5176L132.106 25.6309L125.932 39.2178L122.854 38.3789C121.375 37.9771 119.924 37.6537 118.537 37.4141C117.237 37.1945 116.026 37.085 114.938 37.085C112.586 37.085 110.654 37.7193 108.976 39.0059C107.296 40.2933 105.611 42.9639 104.061 47.1631L104.056 47.1758L104.051 47.1875L104.036 47.2246C102.158 52.1061 100.499 58.2193 99.1152 65.416C98.6554 67.816 98.1974 70.2577 97.7393 72.7285L115.264 63.4629L122.018 76.2402L120.487 77.0527L120.485 77.0537L102.257 86.6885L122.018 97.1357L115.264 109.914L93.2139 98.2549C92.6342 101.497 92.0468 104.72 91.4492 107.904L90.7646 111.512C89.3065 119.134 87.4952 125.882 85.376 131.565L85.374 131.571C82.7282 138.54 79.0913 143.862 74.5029 147.314C69.8769 150.793 64.6926 152.573 59.1182 152.573C56.778 152.573 54.3772 152.277 51.9766 151.699C49.6389 151.135 47.2719 150.319 44.9482 149.277L41.5117 147.738L47.6709 134.187L48.4854 134.397L50.7227 134.98C52.291 135.389 53.7807 135.719 55.1484 135.959L55.6143 136.036C56.6956 136.204 57.724 136.289 58.6758 136.289C61.0244 136.289 62.9563 135.654 64.6387 134.366C66.329 133.073 68.0129 130.428 69.5625 126.301L69.5645 126.295C71.3785 121.552 72.9658 115.582 74.2773 108.525L75.1748 103.654C75.352 102.681 75.5256 101.703 75.7021 100.721L58.3281 109.906L51.5742 97.1299L52.4561 96.6611L53.1045 96.3174L53.1055 96.3164L71.332 86.6807L51.5732 76.2344L58.3281 63.4561L80.2275 75.0322C81.015 70.7239 81.8196 66.4611 82.6367 62.2793L82.9277 60.8193C84.4018 53.5723 86.1869 47.139 88.2461 41.6768L88.2471 41.6738C90.893 34.7051 94.5345 29.3956 99.1338 25.9785C103.756 22.5451 108.931 20.7891 114.499 20.7891Z" fill="white"/>
</svg>
